<svg width="17" height="17" viewBox="0 0 17 17" fill="none" xmlns="http://www.w3.org/2000/svg">
<path d="M8.80049 1.80867C8.53829 1.54639 8.18264 1.399 7.81178 1.39893H2.79691C2.42602 1.39893 2.07031 1.54626 1.80805 1.80852C1.54579 2.07079 1.39845 2.42649 1.39845 2.79738V7.81225C1.39853 8.18312 1.54592 8.53876 1.8082 8.80096L7.89429 14.8871C8.2121 15.2029 8.64194 15.3801 9.08997 15.3801C9.53801 15.3801 9.96784 15.2029 10.2857 14.8871L14.8866 10.2861C15.2024 9.96832 15.3796 9.53848 15.3796 9.09044C15.3796 8.64241 15.2024 8.21257 14.8866 7.89476L8.80049 1.80867Z" stroke="#6A7282" stroke-width="1.39846" stroke-linecap="round" stroke-linejoin="round"/>
<path d="M5.24421 5.59376C5.43729 5.59376 5.59382 5.43723 5.59382 5.24415C5.59382 5.05106 5.43729 4.89453 5.24421 4.89453C5.05112 4.89453 4.89459 5.05106 4.89459 5.24415C4.89459 5.43723 5.05112 5.59376 5.24421 5.59376Z" fill="#6A7282" stroke="#6A7282" stroke-width="1.39846" stroke-linecap="round" stroke-linejoin="round"/>
</svg>
