<svg width="32" height="32" viewBox="0 0 32 32" fill="none" xmlns="http://www.w3.org/2000/svg">
<path d="M15.9953 29.3248C23.3569 29.3248 29.3246 23.357 29.3246 15.9954C29.3246 8.63378 23.3569 2.66602 15.9953 2.66602C8.63366 2.66602 2.66589 8.63378 2.66589 15.9954C2.66589 23.357 8.63366 29.3248 15.9953 29.3248Z" stroke="#99A1AF" stroke-width="1.99941" stroke-linecap="round" stroke-linejoin="round"/>
<path d="M15.9953 17.3282C18.2038 17.3282 19.9941 15.5379 19.9941 13.3294C19.9941 11.1209 18.2038 9.33057 15.9953 9.33057C13.7868 9.33057 11.9965 11.1209 11.9965 13.3294C11.9965 15.5379 13.7868 17.3282 15.9953 17.3282Z" stroke="#99A1AF" stroke-width="1.99941" stroke-linecap="round" stroke-linejoin="round"/>
<path d="M9.33057 27.5414V25.326C9.33057 24.619 9.61143 23.9409 10.1114 23.441C10.6113 22.941 11.2894 22.6602 11.9964 22.6602H19.9941C20.7011 22.6602 21.3792 22.941 21.8791 23.441C22.3791 23.9409 22.6599 24.619 22.6599 25.326V27.5414" stroke="#99A1AF" stroke-width="1.99941" stroke-linecap="round" stroke-linejoin="round"/>
</svg>
