<svg width="17" height="17" viewBox="0 0 17 17" fill="none" xmlns="http://www.w3.org/2000/svg">
<g clip-path="url(#clip0_186_342)">
<path d="M8.39073 1.39844V15.383" stroke="#6A7282" stroke-width="1.39846" stroke-linecap="round" stroke-linejoin="round"/>
<path d="M11.8869 3.49609H6.64266C5.9936 3.49609 5.37111 3.75393 4.91216 4.21289C4.4532 4.67185 4.19536 5.29433 4.19536 5.9434C4.19536 6.59246 4.4532 7.21494 4.91216 7.6739C5.37111 8.13286 5.9936 8.3907 6.64266 8.3907H10.1388C10.7879 8.3907 11.4104 8.64854 11.8693 9.1075C12.3283 9.56645 12.5861 10.1889 12.5861 10.838C12.5861 11.4871 12.3283 12.1095 11.8693 12.5685C11.4104 13.0275 10.7879 13.2853 10.1388 13.2853H4.19536" stroke="#6A7282" stroke-width="1.39846" stroke-linecap="round" stroke-linejoin="round"/>
</g>
<defs>
<clipPath id="clip0_186_342">
<rect width="16.7815" height="16.7815" fill="white"/>
</clipPath>
</defs>
</svg>
