<svg width="20" height="20" viewBox="0 0 20 20" fill="none" xmlns="http://www.w3.org/2000/svg">
<path d="M0 9.99703C0 4.47582 4.47582 0 9.99703 0C15.5182 0 19.9941 4.47582 19.9941 9.99703C19.9941 15.5182 15.5182 19.9941 9.99703 19.9941C4.47582 19.9941 0 15.5182 0 9.99703Z" fill="#E5E7EB"/>
<path d="M11.6479 8.5752C11.5982 8.40237 11.5284 8.24967 11.4384 8.1171C11.3484 7.98216 11.2383 7.86852 11.1081 7.77619C10.9803 7.68149 10.8335 7.60929 10.6678 7.55957C10.5044 7.50985 10.3233 7.485 10.1245 7.485C9.75278 7.485 9.42608 7.57733 9.14435 7.76198C8.865 7.94664 8.64719 8.21535 8.49094 8.56809C8.33469 8.91847 8.25657 9.34698 8.25657 9.8536C8.25657 10.3602 8.33351 10.7911 8.48739 11.1462C8.64128 11.5013 8.85908 11.7724 9.1408 11.9594C9.42253 12.1441 9.75515 12.2364 10.1387 12.2364C10.4867 12.2364 10.7838 12.1749 11.03 12.0518C11.2786 11.9263 11.468 11.7499 11.5982 11.5226C11.7308 11.2954 11.7971 11.0267 11.7971 10.7165L12.1096 10.7627H10.2346V9.60502H13.2779V10.5212C13.2779 11.1604 13.1429 11.7097 12.873 12.1689C12.6032 12.6259 12.2315 12.9786 11.758 13.2272C11.2845 13.4734 10.7424 13.5965 10.1316 13.5965C9.44975 13.5965 8.85079 13.4462 8.33469 13.1455C7.8186 12.8425 7.41613 12.4128 7.12731 11.8564C6.84085 11.2977 6.69762 10.6349 6.69762 9.86781C6.69762 9.27832 6.78285 8.75275 6.9533 8.2911C7.12612 7.82709 7.3676 7.4341 7.67773 7.11213C7.98787 6.79016 8.3489 6.54513 8.76083 6.37704C9.17276 6.20895 9.61902 6.12491 10.0996 6.12491C10.5115 6.12491 10.8951 6.18528 11.2502 6.30602C11.6053 6.42439 11.9202 6.59248 12.1948 6.81028C12.4718 7.02808 12.6979 7.28732 12.873 7.58798C13.0482 7.88627 13.1607 8.21535 13.2104 8.5752H11.6479Z" fill="black"/>
</svg>
