<svg width="24" height="24" viewBox="0 0 24 24" fill="none" xmlns="http://www.w3.org/2000/svg">
<path d="M14.9955 20.9939V12.9963C14.9955 12.7311 14.8902 12.4769 14.7027 12.2894C14.5152 12.1019 14.261 11.9966 13.9958 11.9966H9.99702C9.73188 11.9966 9.4776 12.1019 9.29012 12.2894C9.10264 12.4769 8.99731 12.7311 8.99731 12.9963V20.9939" stroke="#99A1AF" stroke-width="2.49926" stroke-linecap="round" stroke-linejoin="round"/>
<path d="M2.99908 9.9971C2.99901 9.70626 3.0624 9.4189 3.18482 9.15507C3.30723 8.89124 3.48574 8.6573 3.70787 8.46956L10.7058 2.47234C11.0667 2.16734 11.5239 2 11.9964 2C12.4689 2 12.9262 2.16734 13.287 2.47234L20.285 8.46956C20.5071 8.6573 20.6856 8.89124 20.808 9.15507C20.9304 9.4189 20.9938 9.70626 20.9937 9.9971V18.9944C20.9937 19.5247 20.7831 20.0333 20.4081 20.4082C20.0332 20.7832 19.5246 20.9938 18.9943 20.9938H4.99849C4.46822 20.9938 3.95966 20.7832 3.5847 20.4082C3.20974 20.0333 2.99908 19.5247 2.99908 18.9944V9.9971Z" stroke="#99A1AF" stroke-width="2.49926" stroke-linecap="round" stroke-linejoin="round"/>
</svg>
