<svg width="20" height="20" viewBox="0 0 20 20" fill="none" xmlns="http://www.w3.org/2000/svg">
<g clip-path="url(#clip0_174_1076)">
<path d="M0 9.99703C0 4.47582 4.47582 0 9.99703 0C15.5182 0 19.9941 4.47582 19.9941 9.99703C19.9941 15.5182 15.5182 19.9941 9.99703 19.9941C4.47582 19.9941 0 15.5182 0 9.99703Z" fill="black"/>
<path d="M-0.00299072 3.99707H19.997V5.99707C19.997 11.5199 15.5199 15.9971 9.99701 15.9971C4.47416 15.9971 -0.00299072 11.5199 -0.00299072 5.99707V3.99707Z" fill="#FEE500"/>
</g>
<defs>
<clipPath id="clip0_174_1076">
<path d="M0 9.99703C0 4.47582 4.47582 0 9.99703 0C15.5182 0 19.9941 4.47582 19.9941 9.99703C19.9941 15.5182 15.5182 19.9941 9.99703 19.9941C4.47582 19.9941 0 15.5182 0 9.99703Z" fill="white"/>
</clipPath>
</defs>
</svg>
