<svg width="125" height="22" viewBox="0 0 125 22" fill="none" xmlns="http://www.w3.org/2000/svg">
<path d="M16.626 9.47754C16.626 5.01465 14.5996 2.7832 10.5469 2.7832H10.0049L7.11914 19.1455C7.94922 19.2236 8.55469 19.2627 8.93555 19.2627C11.3184 19.2627 13.1934 18.3887 14.5605 16.6406C15.9375 14.8926 16.626 12.5049 16.626 9.47754ZM11.0889 1.17188C14.3799 1.17188 16.8848 1.875 18.6035 3.28125C20.3223 4.67773 21.1816 6.6748 21.1816 9.27246C21.1816 11.6064 20.6836 13.6572 19.6875 15.4248C18.7012 17.1826 17.2803 18.5303 15.4248 19.4678C13.5791 20.4053 11.4355 20.874 8.99414 20.874L2.85645 20.8154H0L0.175781 19.7461L2.76855 19.3506L5.71289 2.62207L3.2666 2.24121L3.45703 1.17188H11.0889ZM26.8359 19.4971L28.5791 19.8486L28.418 20.8154H22.6611L24.8584 8.36426L23.5254 8.0127L23.6865 7.0459H29.0332L26.8359 19.4971ZM25.6055 2.24121C25.6055 1.60645 25.8252 1.07422 26.2646 0.644531C26.7139 0.214844 27.2461 0 27.8613 0C28.4863 0 29.0137 0.219727 29.4434 0.65918C29.8828 1.08887 30.1025 1.61621 30.1025 2.24121C30.1025 2.85645 29.8877 3.38867 29.458 3.83789C29.0283 4.27734 28.4961 4.49707 27.8613 4.49707C27.2363 4.49707 26.7041 4.28223 26.2646 3.85254C25.8252 3.41309 25.6055 2.87598 25.6055 2.24121ZM40.4004 16.4648C40.4004 17.9492 39.9023 19.0967 38.9062 19.9072C37.9102 20.708 36.4209 21.1084 34.4385 21.1084C33.6865 21.1084 32.876 21.0205 32.0068 20.8447C31.1475 20.6787 30.5078 20.5029 30.0879 20.3174L30.7617 16.4941H31.7285L31.9482 18.4277C32.5732 19.3066 33.4375 19.7461 34.541 19.7461C35.3418 19.7461 35.9814 19.5361 36.46 19.1162C36.9385 18.6865 37.1777 18.1543 37.1777 17.5195C37.1777 17.1387 37.0459 16.792 36.7822 16.4795C36.5283 16.1572 36.1279 15.8398 35.5811 15.5273L34.6143 14.9707C33.5303 14.3652 32.7637 13.7354 32.3145 13.0811C31.8652 12.417 31.6406 11.6748 31.6406 10.8545C31.6406 8.07129 33.4814 6.67969 37.1631 6.67969C38.3154 6.67969 39.5947 6.83594 41.001 7.14844L40.3711 10.6787H39.4043L39.2139 9.06738C39.0088 8.81348 38.7061 8.58398 38.3057 8.37891C37.9053 8.16406 37.4561 8.05664 36.958 8.05664C36.2158 8.05664 35.6689 8.22266 35.3174 8.55469C34.9756 8.88672 34.8047 9.32129 34.8047 9.8584C34.8047 10.2393 34.9463 10.5957 35.2295 10.9277C35.5225 11.2598 36.1572 11.6992 37.1338 12.2461C38.0615 12.7637 38.7256 13.2129 39.126 13.5938C39.5361 13.9648 39.8486 14.3799 40.0635 14.8389C40.2881 15.2979 40.4004 15.8398 40.4004 16.4648ZM47.666 21.1084C45.9863 21.1084 44.6826 20.6543 43.7549 19.7461C42.8369 18.8379 42.3779 17.583 42.3779 15.9814C42.3779 14.1748 42.7344 12.5635 43.4473 11.1475C44.1699 9.73145 45.1611 8.63281 46.4209 7.85156C47.6807 7.07031 49.043 6.67969 50.5078 6.67969C51.2109 6.67969 51.9727 6.74805 52.793 6.88477C53.623 7.01172 54.2969 7.16309 54.8145 7.33887L54.0967 11.5576H53.042L52.8369 9.05273C52.3096 8.4668 51.5967 8.17383 50.6982 8.17383C49.9268 8.17383 49.1943 8.52051 48.501 9.21387C47.8174 9.89746 47.2803 10.8301 46.8896 12.0117C46.499 13.1836 46.3037 14.458 46.3037 15.835C46.3037 16.9287 46.5186 17.7783 46.9482 18.3838C47.3779 18.9893 48.0078 19.292 48.8379 19.292C49.5703 19.292 50.2344 19.1602 50.8301 18.8965C51.4355 18.6328 52.0166 18.3057 52.5732 17.915L53.2178 18.8379C52.417 19.5508 51.5234 20.1074 50.5371 20.5078C49.5605 20.9082 48.6035 21.1084 47.666 21.1084Z" fill="#D57200"/>
<path d="M64.6875 11.499C66.1816 11.499 67.3535 11.0498 68.2031 10.1514C69.0625 9.24316 69.4922 8.0127 69.4922 6.45996C69.4922 5.28809 69.2041 4.38477 68.6279 3.75C68.0615 3.11523 67.2119 2.79785 66.0791 2.79785H65.0684L63.5303 11.499H64.6875ZM63.2373 13.1104L62.124 19.3506L65.332 19.7461L65.1709 20.8154H55.2539L55.415 19.7461L57.7881 19.3506L60.7471 2.62207L58.2861 2.24121L58.4619 1.17188H66.2402C68.7207 1.17188 70.5957 1.61133 71.8652 2.49023C73.1445 3.36914 73.7842 4.67773 73.7842 6.41602C73.7842 8.53516 73.0566 10.1807 71.6016 11.3525C70.1465 12.5244 68.0566 13.1104 65.332 13.1104H63.2373ZM86.2646 9.68262C86.2646 10.5615 85.9424 11.3721 85.2979 12.1143C84.6533 12.8564 83.7207 13.4668 82.5 13.9453C81.2891 14.4238 79.9121 14.7217 78.3691 14.8389C78.3203 15.0342 78.2959 15.3662 78.2959 15.835C78.2959 18.1396 79.1797 19.292 80.9473 19.292C81.6699 19.292 82.3389 19.1553 82.9541 18.8818C83.5693 18.5986 84.1455 18.2764 84.6826 17.915L85.3271 18.8379C84.4678 19.5605 83.5352 20.1221 82.5293 20.5225C81.5234 20.9131 80.5566 21.1084 79.6289 21.1084C77.9004 21.1084 76.582 20.6738 75.6738 19.8047C74.7656 18.9355 74.3115 17.6611 74.3115 15.9814C74.3115 14.3018 74.668 12.7441 75.3809 11.3086C76.0938 9.87305 77.0361 8.74512 78.208 7.9248C79.3799 7.09473 80.5957 6.67969 81.8555 6.67969C83.2031 6.67969 84.2725 6.95312 85.0635 7.5C85.8643 8.03711 86.2646 8.76465 86.2646 9.68262ZM78.6035 13.374C79.7949 13.2471 80.7715 12.8174 81.5332 12.085C82.3047 11.3428 82.6904 10.4785 82.6904 9.49219C82.6904 9.08203 82.5879 8.77441 82.3828 8.56934C82.1875 8.36426 81.9531 8.26172 81.6797 8.26172C81.0059 8.26172 80.376 8.75977 79.79 9.75586C79.2139 10.752 78.8184 11.958 78.6035 13.374ZM90.9814 21.1084C89.8682 21.1084 88.9746 20.6787 88.3008 19.8193C87.627 18.96 87.29 17.7783 87.29 16.2744C87.29 14.5459 87.6025 12.9443 88.2275 11.4697C88.8623 9.99512 89.7461 8.83301 90.8789 7.9834C92.0215 7.12402 93.2861 6.69434 94.6729 6.69434C95.7373 6.69434 96.5869 6.83105 97.2217 7.10449L97.2656 6.66504L97.4268 5.28809L98.1006 1.30371L95.7568 0.952148L95.9326 0H102.305L98.833 19.5703L100.283 19.9365L100.107 20.8154H95.2441L95.1416 18.7061C94.5654 19.4775 93.9062 20.0732 93.1641 20.4932C92.4219 20.9033 91.6943 21.1084 90.9814 21.1084ZM91.1426 15.6299C91.1426 16.6846 91.2793 17.5 91.5527 18.0762C91.8359 18.6523 92.2021 18.9404 92.6514 18.9404C93.0225 18.9404 93.4668 18.7451 93.9844 18.3545C94.5117 17.9639 94.9805 17.4805 95.3906 16.9043L96.8115 8.84766C96.6162 8.65234 96.3135 8.48633 95.9033 8.34961C95.5029 8.21289 95.1514 8.14453 94.8486 8.14453C94.1846 8.14453 93.5645 8.49121 92.9883 9.18457C92.4219 9.87793 91.9727 10.8154 91.6406 11.9971C91.3086 13.1787 91.1426 14.3896 91.1426 15.6299ZM106.875 19.4971L108.618 19.8486L108.457 20.8154H102.7L104.897 8.36426L103.564 8.0127L103.726 7.0459H109.072L106.875 19.4971ZM105.645 2.24121C105.645 1.60645 105.864 1.07422 106.304 0.644531C106.753 0.214844 107.285 0 107.9 0C108.525 0 109.053 0.219727 109.482 0.65918C109.922 1.08887 110.142 1.61621 110.142 2.24121C110.142 2.85645 109.927 3.38867 109.497 3.83789C109.067 4.27734 108.535 4.49707 107.9 4.49707C107.275 4.49707 106.743 4.28223 106.304 3.85254C105.864 3.41309 105.645 2.87598 105.645 2.24121ZM122.344 19.4971L123.94 19.9658L123.823 20.8154H118.74L118.682 18.7939C118.105 19.5166 117.451 20.0879 116.719 20.5078C115.996 20.918 115.259 21.123 114.507 21.123C113.286 21.123 112.334 20.6836 111.65 19.8047C110.977 18.9258 110.64 17.7051 110.64 16.1426C110.64 14.4336 110.996 12.8516 111.709 11.3965C112.422 9.93164 113.413 8.78418 114.683 7.9541C115.962 7.11426 117.368 6.69434 118.901 6.69434C120.249 6.69434 121.475 6.91406 122.578 7.35352L123.779 6.81152H124.57L122.344 19.4971ZM114.492 15.6738C114.492 16.6797 114.658 17.4805 114.99 18.0762C115.332 18.6621 115.757 18.9551 116.265 18.9551C116.655 18.9551 117.09 18.7598 117.568 18.3691C118.047 17.9785 118.477 17.4951 118.857 16.9189L120.308 8.67188C119.868 8.33984 119.263 8.17383 118.491 8.17383C117.769 8.17383 117.1 8.52051 116.484 9.21387C115.869 9.89746 115.381 10.8301 115.02 12.0117C114.668 13.1836 114.492 14.4043 114.492 15.6738Z" fill="black"/>
</svg>
