<svg width="20" height="20" viewBox="0 0 20 20" fill="none" xmlns="http://www.w3.org/2000/svg">
<path d="M9.99704 16.6616H17.4948" stroke="#4A5565" stroke-width="1.66617" stroke-linecap="round" stroke-linejoin="round"/>
<path d="M13.6426 3.01747C13.9743 2.68583 14.4241 2.49951 14.8931 2.49951C15.3621 2.49951 15.8119 2.68583 16.1435 3.01747C16.4752 3.34911 16.6615 3.79892 16.6615 4.26793C16.6615 4.73695 16.4752 5.18675 16.1435 5.51839L6.13818 15.5246C5.93998 15.7228 5.695 15.8678 5.42589 15.9461L3.03327 16.6443C2.96158 16.6652 2.88559 16.6664 2.81326 16.6479C2.74092 16.6294 2.6749 16.5917 2.62209 16.5389C2.56929 16.4861 2.53166 16.4201 2.51312 16.3478C2.49459 16.2754 2.49584 16.1994 2.51675 16.1277L3.21488 13.7351C3.29337 13.4663 3.43835 13.2216 3.63642 13.0237L13.6426 3.01747Z" stroke="#4A5565" stroke-width="1.66617" stroke-linecap="round" stroke-linejoin="round"/>
</svg>
