<svg width="20" height="20" viewBox="0 0 20 20" fill="none" xmlns="http://www.w3.org/2000/svg">
<path d="M14.9956 6.66453C16.3759 6.66453 17.4948 5.54558 17.4948 4.16527C17.4948 2.78497 16.3759 1.66602 14.9956 1.66602C13.6152 1.66602 12.4963 2.78497 12.4963 4.16527C12.4963 5.54558 13.6152 6.66453 14.9956 6.66453Z" stroke="#4A5565" stroke-width="1.66617" stroke-linecap="round" stroke-linejoin="round"/>
<path d="M4.99852 12.4961C6.37882 12.4961 7.49778 11.3771 7.49778 9.99682C7.49778 8.61651 6.37882 7.49756 4.99852 7.49756C3.61822 7.49756 2.49926 8.61651 2.49926 9.99682C2.49926 11.3771 3.61822 12.4961 4.99852 12.4961Z" stroke="#4A5565" stroke-width="1.66617" stroke-linecap="round" stroke-linejoin="round"/>
<path d="M14.9956 18.3281C16.3759 18.3281 17.4948 17.2092 17.4948 15.8288C17.4948 14.4485 16.3759 13.3296 14.9956 13.3296C13.6152 13.3296 12.4963 14.4485 12.4963 15.8288C12.4963 17.2092 13.6152 18.3281 14.9956 18.3281Z" stroke="#4A5565" stroke-width="1.66617" stroke-linecap="round" stroke-linejoin="round"/>
<path d="M7.15621 11.2549L12.8462 14.5706" stroke="#4A5565" stroke-width="1.66617" stroke-linecap="round" stroke-linejoin="round"/>
<path d="M12.8379 5.42334L7.15621 8.73902" stroke="#4A5565" stroke-width="1.66617" stroke-linecap="round" stroke-linejoin="round"/>
</svg>
