<svg width="17" height="17" viewBox="0 0 17 17" fill="none" xmlns="http://www.w3.org/2000/svg">
<path d="M1.39845 4.89458L4.48205 1.81098C4.61215 1.68011 4.76686 1.57628 4.93727 1.50547C5.10768 1.43467 5.29042 1.39829 5.47496 1.39844H11.3065C11.4911 1.39829 11.6738 1.43467 11.8442 1.50547C12.0146 1.57628 12.1693 1.68011 12.2994 1.81098L15.383 4.89458" stroke="#6A7282" stroke-width="1.39846" stroke-linecap="round" stroke-linejoin="round"/>
<path d="M2.79689 8.39062V13.9845C2.79689 14.3554 2.94423 14.7111 3.20649 14.9733C3.46875 15.2356 3.82445 15.3829 4.19535 15.3829H12.5861C12.957 15.3829 13.3127 15.2356 13.575 14.9733C13.8372 14.7111 13.9846 14.3554 13.9846 13.9845V8.39062" stroke="#6A7282" stroke-width="1.39846" stroke-linecap="round" stroke-linejoin="round"/>
<path d="M10.4884 15.3829V12.586C10.4884 12.2151 10.3411 11.8594 10.0788 11.5971C9.81657 11.3348 9.46087 11.1875 9.08998 11.1875H7.69152C7.32062 11.1875 6.96492 11.3348 6.70266 11.5971C6.4404 11.8594 6.29306 12.2151 6.29306 12.586V15.3829" stroke="#6A7282" stroke-width="1.39846" stroke-linecap="round" stroke-linejoin="round"/>
<path d="M1.39845 4.89453H15.383" stroke="#6A7282" stroke-width="1.39846" stroke-linecap="round" stroke-linejoin="round"/>
<path d="M15.383 4.89453V6.99222C15.383 7.36311 15.2357 7.71882 14.9734 7.98108C14.7112 8.24334 14.3555 8.39068 13.9846 8.39068C13.576 8.36819 13.1859 8.21359 12.8728 7.95016C12.7894 7.88987 12.6891 7.85742 12.5861 7.85742C12.4832 7.85742 12.3829 7.88987 12.2994 7.95016C11.9864 8.21359 11.5962 8.36819 11.1877 8.39068C10.7791 8.36819 10.389 8.21359 10.0759 7.95016C9.99245 7.88987 9.89214 7.85742 9.7892 7.85742C9.68626 7.85742 9.58595 7.88987 9.50252 7.95016C9.18945 8.21359 8.79928 8.36819 8.39074 8.39068C7.98221 8.36819 7.59203 8.21359 7.27897 7.95016C7.19554 7.88987 7.09522 7.85742 6.99228 7.85742C6.88935 7.85742 6.78903 7.88987 6.7056 7.95016C6.39254 8.21359 6.00236 8.36819 5.59383 8.39068C5.18529 8.36819 4.79512 8.21359 4.48205 7.95016C4.39862 7.88987 4.2983 7.85742 4.19537 7.85742C4.09243 7.85742 3.99212 7.88987 3.90868 7.95016C3.59562 8.21359 3.20545 8.36819 2.79691 8.39068C2.42602 8.39068 2.07031 8.24334 1.80805 7.98108C1.54579 7.71882 1.39845 7.36311 1.39845 6.99222V4.89453" stroke="#6A7282" stroke-width="1.39846" stroke-linecap="round" stroke-linejoin="round"/>
</svg>
