<svg width="28" height="28" viewBox="0 0 28 28" fill="none" xmlns="http://www.w3.org/2000/svg">
<path d="M13.9958 19.3276H19.994" stroke="#99A1AF" stroke-width="1.33294" stroke-linecap="round" stroke-linejoin="round"/>
<path d="M16.9123 8.41193C17.1776 8.14661 17.5375 7.99756 17.9127 7.99756C18.2879 7.99756 18.6477 8.14661 18.913 8.41193C19.1784 8.67724 19.3274 9.03708 19.3274 9.4123C19.3274 9.78751 19.1784 10.1474 18.913 10.4127L10.9087 18.4176C10.7502 18.5762 10.5542 18.6922 10.3389 18.7549L8.42482 19.3134C8.36747 19.3301 8.30668 19.3311 8.24881 19.3163C8.19094 19.3014 8.13812 19.2713 8.09588 19.2291C8.05364 19.1868 8.02353 19.134 8.0087 19.0762C7.99388 19.0183 7.99488 18.9575 8.01161 18.9001L8.57011 16.986C8.6329 16.771 8.74888 16.5752 8.90734 16.4169L16.9123 8.41193Z" stroke="#99A1AF" stroke-width="1.33294" stroke-linecap="round" stroke-linejoin="round"/>
</svg>
